<svg width="20" height="20" viewBox="0 0 20 20" fill="none" xmlns="http://www.w3.org/2000/svg">
<path d="M10 0C4.47715 0 0 4.47715 0 10C0 15.5228 4.47715 20 10 20C15.5228 20 20 15.5228 20 10C19.9936 4.47982 15.5202 0.00642897 10 0Z" fill="#5243C2" fill-opacity="0.15"/>
<path d="M15.772 6.83423L10.0679 14.5751C9.93182 14.7556 9.72896 14.8738 9.50487 14.9033C9.28079 14.9327 9.05426 14.8709 8.87619 14.7317L4.80286 11.4751C4.44341 11.1874 4.38521 10.6628 4.67286 10.3034C4.9605 9.94395 5.48508 9.88575 5.84452 10.1734L9.24119 12.8909L14.4304 5.84839C14.6005 5.59305 14.8972 5.45188 15.2027 5.48093C15.5082 5.50997 15.773 5.70454 15.8919 5.98737C16.0109 6.27021 15.9649 6.59555 15.772 6.83423Z" fill="#BB6BD9"/>
</svg>
