<svg width="227" height="37" viewBox="0 0 227 37" fill="none" xmlns="http://www.w3.org/2000/svg">
<path d="M60.401 16.031H55.269L54.2689 19.4773H50.2031L55.4755 3.78906H60.3572L65.6304 19.4773H61.3904L60.401 16.031ZM56.0412 13.1602H59.6181L57.8788 7.11566H57.7912L56.0412 13.1602Z" fill="white"/>
<path d="M70.8271 3.00391H66.9785V19.4751H70.8271V3.00391Z" fill="white"/>
<path d="M80.4288 7.20312C81.9581 7.20312 83.1468 7.74653 83.995 8.83335C84.8503 9.92107 85.2775 11.4467 85.2775 13.4103C85.2775 15.3748 84.8539 16.9005 84.0057 17.9882C83.1646 19.0822 81.9867 19.6292 80.4717 19.6292C78.6529 19.6292 77.4168 18.8864 76.7644 17.401H76.6884V23.1524H72.8398V7.36579H76.667V9.4858H76.7429C77.0477 8.76811 77.5223 8.2104 78.1676 7.81178C78.812 7.40601 79.5663 7.20312 80.4288 7.20312ZM79.0042 16.5966C79.7147 16.5966 80.2805 16.3097 80.7005 15.7377C81.1206 15.1576 81.3306 14.3819 81.3306 13.4103C81.3306 12.4469 81.1206 11.6782 80.7005 11.1062C80.2724 10.5261 79.7076 10.2357 79.0042 10.2357C78.3017 10.2357 77.7359 10.5261 77.3087 11.1062C76.8877 11.6854 76.6777 12.4576 76.6777 13.422C76.6777 14.3926 76.8877 15.1648 77.3087 15.7377C77.7288 16.3097 78.2945 16.5966 79.0042 16.5966Z" fill="white"/>
<path d="M86.8984 3.00391H90.671V9.64638H90.747C91.3995 7.9938 92.6999 7.16796 94.6501 7.16796C95.9979 7.16796 97.0561 7.57016 97.8247 8.37455C98.5934 9.18609 98.9768 10.306 98.9768 11.7342V19.4751H95.1175V12.5601C95.1175 11.8647 94.9289 11.3141 94.5518 10.9075C94.1683 10.5089 93.6464 10.3096 92.9868 10.3096C92.3272 10.3096 91.7909 10.5276 91.3771 10.962C90.957 11.4044 90.747 11.9702 90.747 12.6584V19.4751H86.8984V3.00391Z" fill="white"/>
<path d="M105.827 16.9557C106.466 16.9557 107.002 16.785 107.436 16.4444C107.893 16.0968 108.122 15.6508 108.122 15.1074V14.2699L105.893 14.4227C104.762 14.5023 104.196 14.9295 104.196 15.7053C104.196 16.0896 104.346 16.3944 104.642 16.6187C104.933 16.8431 105.328 16.9557 105.827 16.9557ZM104.469 19.6298C103.316 19.6298 102.353 19.2893 101.577 18.6082C100.779 17.92 100.381 17.0388 100.381 15.9663C100.381 13.6979 102.015 12.4618 105.284 12.2589L108.122 12.0846V11.3893C108.122 10.904 107.958 10.5268 107.632 10.2587C107.314 9.9977 106.879 9.86721 106.328 9.86721C105.813 9.86721 105.385 9.99055 105.045 10.2363C104.718 10.4759 104.526 10.7878 104.469 11.1721H101C101.051 9.94675 101.573 8.9645 102.566 8.22536C103.566 7.47906 104.882 7.10547 106.512 7.10547C108.122 7.10547 109.419 7.47906 110.404 8.22536C111.39 8.9788 111.884 9.96463 111.884 11.1828V19.4672H108.143V17.7279H108.067C107.748 18.3222 107.252 18.7897 106.577 19.1302C105.926 19.4636 105.222 19.6298 104.469 19.6298Z" fill="white"/>
<path d="M118.311 7.37443H122.051V9.7009H122.127C122.366 8.92511 122.797 8.30931 123.42 7.85259C124.044 7.39588 124.765 7.16797 125.584 7.16797C126.483 7.16797 127.226 7.38873 127.813 7.83114C128.4 8.28071 128.78 8.91439 128.954 9.73397H129.03C129.27 8.95103 129.727 8.32718 130.401 7.86332C131.082 7.39945 131.872 7.16797 132.771 7.16797C133.952 7.16797 134.909 7.54514 135.641 8.29858C136.373 9.06007 136.739 10.053 136.739 11.2775V19.4751H132.89V12.2562C132.89 10.9513 132.311 10.2988 131.15 10.2988C130.607 10.2988 130.175 10.4803 129.857 10.8422C129.531 11.2051 129.367 11.6904 129.367 12.2991V19.4751H125.693V12.2017C125.693 11.593 125.54 11.122 125.236 10.7886C124.939 10.4624 124.511 10.2988 123.953 10.2988C123.417 10.2988 122.982 10.4838 122.649 10.8539C122.323 11.223 122.159 11.7128 122.159 12.3214V19.4751H118.311V7.37443Z" fill="white"/>
<path d="M143.589 16.9557C144.227 16.9557 144.764 16.785 145.199 16.4444C145.656 16.0968 145.883 15.6508 145.883 15.1074V14.2699L143.654 14.4227C142.524 14.5023 141.959 14.9295 141.959 15.7053C141.959 16.0896 142.107 16.3944 142.404 16.6187C142.695 16.8431 143.09 16.9557 143.589 16.9557ZM142.231 19.6298C141.078 19.6298 140.114 19.2893 139.338 18.6082C138.541 17.92 138.143 17.0388 138.143 15.9663C138.143 13.6979 139.777 12.4618 143.046 12.2589L145.883 12.0846V11.3893C145.883 10.904 145.721 10.5268 145.395 10.2587C145.076 9.9977 144.64 9.86721 144.09 9.86721C143.575 9.86721 143.148 9.99055 142.806 10.2363C142.481 10.4759 142.289 10.7878 142.231 11.1721H138.762C138.813 9.94675 139.335 8.9645 140.328 8.22536C141.328 7.47906 142.644 7.10547 144.275 7.10547C145.884 7.10547 147.181 7.47906 148.167 8.22536C149.152 8.9788 149.645 9.96463 149.645 11.1828V19.4672H145.905V17.7279H145.829C145.51 18.3222 145.014 18.7897 144.34 19.1302C143.688 19.4636 142.984 19.6298 142.231 19.6298Z" fill="white"/>
<path d="M151.57 7.36579H155.311V9.63774H155.387C155.828 8.01466 156.782 7.20312 158.246 7.20312C158.594 7.20312 158.92 7.25318 159.225 7.35506V10.6602C158.891 10.5154 158.478 10.443 157.985 10.443C157.159 10.443 156.524 10.6674 156.082 11.1169C155.641 11.5736 155.419 12.2261 155.419 13.0734V19.4665H151.57V7.36579Z" fill="white"/>
<path d="M167.99 7.37442H172.296L167.947 12.5601L172.545 19.4751H168.109L165.098 14.8651L164.359 15.724V19.4751H160.51V3.00391H164.359V12.0059H164.435L167.99 7.37442Z" fill="white"/>
<path d="M178.394 9.84576C177.778 9.84576 177.26 10.0522 176.839 10.4651C176.419 10.8781 176.183 11.4072 176.133 12.0525H180.634C180.597 11.3857 180.376 10.8495 179.971 10.4437C179.557 10.0451 179.031 9.84576 178.394 9.84576ZM184.2 15.6615C184.011 16.9011 183.403 17.887 182.373 18.619C181.336 19.3581 180.036 19.7281 178.47 19.7281C176.556 19.7281 175.056 19.174 173.969 18.0648C172.881 16.9557 172.338 15.4264 172.338 13.4762C172.338 11.5269 172.878 9.97535 173.958 8.82329C175.038 7.67837 176.498 7.10547 178.34 7.10547C180.144 7.10547 181.587 7.65245 182.666 8.74732C183.74 9.84933 184.276 11.3205 184.276 13.1616V14.2592H176.089V14.4987C176.089 15.2378 176.313 15.8358 176.763 16.2925C177.213 16.7564 177.8 16.9887 178.525 16.9887C179.677 16.9887 180.409 16.5463 180.721 15.6615H184.2Z" fill="white"/>
<path d="M190.637 4.70703V7.38118H192.822V10.2296H190.637V15.3938C190.637 16.242 191.104 16.6656 192.039 16.6656C192.307 16.6656 192.568 16.6477 192.822 16.612V19.3514C192.38 19.4533 191.815 19.5033 191.126 19.5033C189.575 19.5033 188.462 19.2424 187.788 18.7204C187.122 18.2065 186.788 17.3547 186.788 16.166V10.2296H185.168V7.38118H186.788V4.70703H190.637Z" fill="white"/>
<path d="M194.51 7.37609H198.369V19.4768H194.51V7.37609ZM196.434 6.37597C195.882 6.37597 195.419 6.19453 195.042 5.83256C194.651 5.46969 194.455 5.01655 194.455 4.47314C194.455 3.93688 194.651 3.48374 195.042 3.11462C195.419 2.75175 195.882 2.57031 196.434 2.57031C196.984 2.57031 197.452 2.75175 197.836 3.11462C198.228 3.48374 198.423 3.93688 198.423 4.47314C198.423 5.01655 198.228 5.46969 197.836 5.83256C197.459 6.19453 196.992 6.37597 196.434 6.37597Z" fill="white"/>
<path d="M200.328 7.37443H204.068V9.64638H204.144C204.811 7.99381 206.097 7.16797 208.004 7.16797C209.352 7.16797 210.41 7.57016 211.178 8.37455C211.939 9.17894 212.32 10.2953 212.32 11.7235V19.4751H208.461V12.5493C208.461 11.8468 208.279 11.299 207.916 10.9075C207.547 10.5089 207.032 10.3096 206.373 10.3096C205.72 10.3096 205.191 10.5276 204.785 10.962C204.38 11.3973 204.177 11.9586 204.177 12.6476V19.4751H200.328V7.37443Z" fill="white"/>
<path d="M220.083 16.4876C220.808 16.4876 221.376 16.2194 221.789 15.6832C222.21 15.1398 222.42 14.3819 222.42 13.4103C222.42 12.4397 222.21 11.6675 221.789 11.0946C221.369 10.5226 220.8 10.2357 220.083 10.2357C219.365 10.2357 218.799 10.519 218.387 11.0839C217.967 11.6568 217.756 12.429 217.756 13.3996C217.756 14.3783 217.962 15.1398 218.376 15.6832C218.789 16.2194 219.358 16.4876 220.083 16.4876ZM220.018 23.9568C218.307 23.9568 216.919 23.6234 215.854 22.9566C214.773 22.2827 214.208 21.3836 214.157 20.2602H217.897C217.977 20.6007 218.223 20.876 218.637 21.086C219.043 21.2898 219.524 21.3908 220.083 21.3908C220.785 21.3908 221.348 21.2245 221.768 20.8912C222.188 20.5497 222.399 20.0894 222.399 19.5103V17.216H222.322C222.076 17.8613 221.623 18.3761 220.963 18.7595C220.297 19.151 219.521 19.3467 218.637 19.3467C217.18 19.3467 216.016 18.8212 215.147 17.7701C214.263 16.6976 213.82 15.2336 213.82 13.3782C213.82 11.4575 214.255 9.94967 215.125 8.8557C215.995 7.75368 217.187 7.20312 218.702 7.20312C219.557 7.20312 220.314 7.41316 220.974 7.83323C221.612 8.24615 222.072 8.7976 222.355 9.4858H222.42V7.36579H226.258V19.227C226.258 20.6624 225.689 21.8073 224.551 22.6626C223.413 23.5251 221.902 23.9568 220.018 23.9568Z" fill="white"/>
<path d="M55.3764 29.565H51.9712L51.072 32.0488H50.2578L53.2913 23.9414H54.0554L57.0844 32.0488H56.2755L55.3764 29.565ZM52.2018 28.9027H55.1458L53.6908 24.8906H53.6568L52.2018 28.9027Z" fill="white"/>
<path d="M62.72 32.0547H61.7368L58.7704 29.0937H58.7365V32.0547H58V26.0039H58.7365V28.7281H58.7704L61.6636 26.0039H62.6074L59.523 28.88L62.72 32.0547Z" fill="white"/>
<path d="M67.8886 26.6269H65.8213V32.0547H65.0858V26.6269H63.0176V26.0039H67.8886V26.6269Z" fill="white"/>
<path d="M69.3057 34.1613C69.1779 34.1613 69.0545 34.147 68.9348 34.1166V33.482C69.0465 33.508 69.1689 33.5214 69.2994 33.5214C69.5729 33.5214 69.7964 33.4409 69.968 33.2792C70.1369 33.1219 70.2888 32.8528 70.4238 32.4703L70.5587 32.094L68.2832 26.0039H69.0804L70.935 31.3021H70.952L72.811 26.0039H73.5975L71.238 32.347C70.9761 33.0584 70.7098 33.5384 70.4399 33.785C70.1744 34.0362 69.7964 34.1613 69.3057 34.1613Z" fill="white"/>
<path d="M76.3015 31.4756C76.8449 31.4756 77.298 31.3129 77.6618 30.9867C78.0282 30.665 78.2124 30.2637 78.2124 29.7846V29.1161L76.4418 29.2394C75.4041 29.3073 74.8858 29.6872 74.8858 30.3798C74.8858 30.7061 75.0171 30.9697 75.279 31.1726C75.5409 31.3746 75.8823 31.4756 76.3015 31.4756ZM76.1558 32.1272C75.5525 32.1272 75.0636 31.9663 74.6891 31.6445C74.3146 31.3183 74.127 30.8956 74.127 30.3745C74.127 29.3216 74.8688 28.7434 76.3524 28.6388L78.2124 28.5146V27.998C78.2124 27.5555 78.0792 27.2132 77.8129 26.9701C77.5438 26.7261 77.1649 26.6046 76.6778 26.6046C76.255 26.6046 75.9047 26.7056 75.6276 26.9076C75.3505 27.114 75.178 27.3965 75.1101 27.7566H74.3969C74.4273 27.224 74.657 26.7896 75.0878 26.4526C75.515 26.1121 76.0468 25.9414 76.684 25.9414C77.3767 25.9414 77.929 26.1211 78.3411 26.4812C78.7495 26.8405 78.9533 27.3258 78.9533 27.9363V32.0601H78.2454V30.9027H78.2284C78.064 31.27 77.7941 31.5659 77.4196 31.7902C77.0415 32.0154 76.6197 32.1272 76.1558 32.1272Z" fill="white"/>
<path d="M81.7061 29.4529C81.6381 30.3226 81.4996 30.9589 81.2905 31.3638C81.0313 31.8581 80.6327 32.1056 80.0937 32.1056C79.9695 32.1056 79.8569 32.0869 79.7559 32.0493V31.3692C79.8461 31.3996 79.9471 31.4139 80.0597 31.4139C80.3556 31.4139 80.5799 31.2307 80.7336 30.8633C80.865 30.5487 80.9544 30.0696 81.0036 29.4252C81.0894 28.5261 81.168 27.3857 81.2395 26.0039H85.1104V32.0547H84.3749V26.6269H81.9081C81.8482 27.7807 81.7811 28.7227 81.7061 29.4529Z" fill="white"/>
<path d="M87.2903 28.6888V31.4309H88.5996C89.042 31.4309 89.396 31.3057 89.6614 31.0546C89.9242 30.807 90.0547 30.4763 90.0547 30.0598C90.0547 29.6406 89.9224 29.3073 89.6561 29.0597C89.3942 28.813 89.042 28.6888 88.5996 28.6888H87.2903ZM86.5547 26.0039H87.2903V28.0596H88.5996C89.2664 28.0596 89.7982 28.2401 90.195 28.5994C90.5963 28.9623 90.7965 29.4494 90.7965 30.0598C90.7965 30.6667 90.5963 31.152 90.195 31.5158C89.7982 31.8751 89.2664 32.0547 88.5996 32.0547H86.5547V26.0039Z" fill="white"/>
<path d="M96.0442 29.2232H92.6505V32.0547H91.9141V26.0039H92.6505V28.5994H96.0442V26.0039H96.7797V32.0547H96.0442V29.2232Z" fill="white"/>
<path d="M103.371 26.0039H104.108V32.0547H103.371V26.0039ZM98.966 28.6888V31.4309H100.275C100.718 31.4309 101.072 31.3057 101.337 31.0546C101.6 30.807 101.73 30.4763 101.73 30.0598C101.73 29.6406 101.598 29.3073 101.332 29.0597C101.07 28.813 100.718 28.6888 100.275 28.6888H98.966ZM98.2305 26.0039H98.966V28.0596H100.275C100.942 28.0596 101.474 28.2401 101.872 28.5994C102.272 28.9623 102.472 29.4494 102.472 30.0598C102.472 30.6667 102.272 31.152 101.872 31.5158C101.474 31.8751 100.942 32.0547 100.275 32.0547H98.2305V26.0039Z" fill="white"/>
<path d="M106.962 23.4805C106.962 23.8174 107.063 24.0909 107.266 24.3009C107.471 24.5137 107.745 24.6209 108.085 24.6209C108.427 24.6209 108.698 24.5137 108.9 24.3009C109.102 24.0909 109.203 23.8174 109.203 23.4805H109.771C109.771 23.9631 109.617 24.351 109.31 24.6433C108.999 24.9391 108.591 25.0875 108.085 25.0875C107.576 25.0875 107.168 24.9391 106.861 24.6433C106.55 24.351 106.394 23.9631 106.394 23.4805H106.962ZM105.557 32.0767V26.0259H106.293V30.9193H106.327L109.765 26.0259H110.501V32.0767H109.765V27.1833H109.726L106.293 32.0767H105.557Z" fill="white"/>
<path d="M114.496 32.0547V26.0039H115.378L117.772 31.0716H117.805L120.193 26.0039H121.047V32.0547H120.306V27.3517H120.272L118.058 31.9367H117.479L115.266 27.3517H115.232V32.0547H114.496Z" fill="white"/>
<path d="M124.425 31.4756C124.967 31.4756 125.421 31.3129 125.784 30.9867C126.151 30.665 126.335 30.2637 126.335 29.7846V29.1161L124.565 29.2394C123.527 29.3073 123.009 29.6872 123.009 30.3798C123.009 30.7061 123.139 30.9697 123.402 31.1726C123.664 31.3746 124.004 31.4756 124.425 31.4756ZM124.278 32.1272C123.676 32.1272 123.187 31.9663 122.812 31.6445C122.437 31.3183 122.25 30.8956 122.25 30.3745C122.25 29.3216 122.992 28.7434 124.475 28.6388L126.335 28.5146V27.998C126.335 27.5555 126.201 27.2132 125.936 26.9701C125.666 26.7261 125.288 26.6046 124.801 26.6046C124.377 26.6046 124.028 26.7056 123.75 26.9076C123.473 27.114 123.3 27.3965 123.233 27.7566H122.52C122.549 27.224 122.78 26.7896 123.211 26.4526C123.638 26.1121 124.17 25.9414 124.806 25.9414C125.5 25.9414 126.052 26.1211 126.464 26.4812C126.873 26.8405 127.076 27.3258 127.076 27.9363V32.0601H126.368V30.9027H126.352C126.187 31.27 125.917 31.5659 125.543 31.7902C125.164 32.0154 124.743 32.1272 124.278 32.1272Z" fill="white"/>
<path d="M131.268 25.9414C132.033 25.9414 132.654 26.2265 133.134 26.7958C133.609 27.3652 133.847 28.1106 133.847 29.032C133.847 29.9535 133.609 30.7007 133.134 31.2736C132.662 31.8429 132.043 32.1272 131.279 32.1272C130.804 32.1272 130.38 32.0056 130.009 31.7625C129.65 31.5301 129.384 31.2137 129.212 30.8124H129.195V34.0434H128.453V26.0093H129.156V27.2615H129.173C129.333 26.8727 129.603 26.5554 129.981 26.3123C130.368 26.0647 130.797 25.9414 131.268 25.9414ZM131.139 31.4586C131.723 31.4586 132.195 31.2379 132.555 30.7963C132.91 30.3504 133.088 29.764 133.088 29.0374C133.088 28.3108 132.91 27.7227 132.555 27.2731C132.195 26.8271 131.723 26.6046 131.139 26.6046C130.562 26.6046 130.094 26.8289 129.734 27.2785C129.371 27.7316 129.19 28.3161 129.19 29.032C129.19 29.7506 129.371 30.3352 129.734 30.7847C130.094 31.2343 130.562 31.4586 131.139 31.4586Z" fill="white"/>
<path d="M139.712 32.0547H138.729L135.763 29.0937H135.729V32.0547H134.992V26.0039H135.729V28.7281H135.763L138.656 26.0039H139.6L136.515 28.88L139.712 32.0547Z" fill="white"/>
<path d="M142.815 26.5992C142.271 26.5992 141.826 26.7842 141.478 27.1551C141.125 27.5225 140.932 28.0069 140.898 28.6102H144.663C144.656 28.0069 144.483 27.5225 144.146 27.1551C143.806 26.7842 143.362 26.5992 142.815 26.5992ZM145.36 30.3468C145.27 30.867 144.996 31.2924 144.54 31.6222C144.079 31.9591 143.523 32.1272 142.871 32.1272C142.032 32.1272 141.365 31.8519 140.871 31.3013C140.376 30.7472 140.129 29.9964 140.129 29.0481C140.129 28.1088 140.375 27.3553 140.865 26.7896C141.36 26.2247 142.013 25.9414 142.826 25.9414C143.62 25.9414 144.255 26.2077 144.731 26.7395C145.203 27.2749 145.439 27.9926 145.439 28.8908V29.2171H140.898V29.2564C140.898 29.9383 141.081 30.4773 141.444 30.875C141.804 31.2718 142.285 31.4702 142.888 31.4702C143.334 31.4702 143.714 31.3657 144.028 31.1556C144.336 30.9536 144.534 30.6837 144.624 30.3468H145.36Z" fill="white"/>
<path d="M150.842 26.6269H148.774V32.0547H148.038V26.6269H145.971V26.0039H150.842V26.6269Z" fill="white"/>
<path d="M151.793 32.0547V26.0039H152.529V30.8973H152.562L156.001 26.0039H156.737V32.0547H156.001V27.1613H155.962L152.529 32.0547H151.793Z" fill="white"/>
<path d="M162.312 29.2232H158.918V32.0547H158.182V26.0039H158.918V28.5994H162.312V26.0039H163.047V32.0547H162.312V29.2232Z" fill="white"/>
<path d="M165.233 26.6269V32.0547H164.496V26.0039H168.334V26.6269H165.233Z" fill="white"/>
<path d="M171.971 32.0547V26.0039H172.706V30.8973H172.74L176.179 26.0039H176.915V32.0547H176.179V27.1613H176.139L172.706 32.0547H171.971Z" fill="white"/>
<path d="M184.982 26.6269H181.645V32.0547H180.908V26.0039H185.718V32.0547H184.982V26.6269Z" fill="white"/>
<path d="M189.983 25.9414C190.748 25.9414 191.369 26.2265 191.849 26.7958C192.324 27.3652 192.562 28.1106 192.562 29.032C192.562 29.9535 192.324 30.7007 191.849 31.2736C191.377 31.8429 190.758 32.1272 189.994 32.1272C189.519 32.1272 189.095 32.0056 188.724 31.7625C188.365 31.5301 188.099 31.2137 187.927 30.8124H187.91V34.0434H187.168V26.0093H187.87V27.2615H187.887C188.048 26.8727 188.318 26.5554 188.696 26.3123C189.082 26.0647 189.511 25.9414 189.983 25.9414ZM189.854 31.4586C190.438 31.4586 190.91 31.2379 191.269 30.7963C191.625 30.3504 191.803 29.764 191.803 29.0374C191.803 28.3108 191.625 27.7227 191.269 27.2731C190.91 26.8271 190.438 26.6046 189.854 26.6046C189.277 26.6046 188.809 26.8289 188.449 27.2785C188.086 27.7316 187.904 28.3161 187.904 29.032C187.904 29.7506 188.086 30.3352 188.449 30.7847C188.809 31.2343 189.277 31.4586 189.854 31.4586Z" fill="white"/>
<path d="M196.152 32.1272C195.321 32.1272 194.656 31.8465 194.157 31.2843C193.655 30.7266 193.404 29.9759 193.404 29.0321C193.404 28.0918 193.655 27.3401 194.157 26.7789C194.656 26.2203 195.321 25.9414 196.152 25.9414C196.987 25.9414 197.654 26.2203 198.152 26.7789C198.654 27.3401 198.905 28.0918 198.905 29.0321C198.905 29.9723 198.654 30.7231 198.152 31.2843C197.654 31.8465 196.987 32.1272 196.152 32.1272ZM196.152 31.4586C196.77 31.4586 197.256 31.2432 197.612 30.8124C197.969 30.3781 198.147 29.7846 198.147 29.0321C198.147 28.2786 197.969 27.6851 197.612 27.2508C197.256 26.82 196.77 26.6046 196.152 26.6046C195.538 26.6046 195.052 26.82 194.697 27.2508C194.341 27.6851 194.163 28.2786 194.163 29.0321C194.163 29.7846 194.341 30.3781 194.697 30.8124C195.052 31.2432 195.538 31.4586 196.152 31.4586Z" fill="white"/>
<path d="M204.188 26.6269H201.558C201.502 27.6985 201.432 28.6405 201.35 29.4529C201.271 30.4012 201.09 31.0492 200.805 31.3969V31.4309H204.188V26.6269ZM199.434 33.6563V31.4309H199.922C200.327 31.169 200.572 30.5004 200.659 29.4252C200.771 28.039 200.849 26.8986 200.895 26.0039H204.928V31.4309H205.906V33.6563H205.21V32.0547H200.131V33.6563H199.434Z" fill="white"/>
<path d="M208.749 31.4756C209.292 31.4756 209.745 31.3129 210.108 30.9867C210.476 30.665 210.659 30.2637 210.659 29.7846V29.1161L208.889 29.2394C207.851 29.3073 207.333 29.6872 207.333 30.3798C207.333 30.7061 207.464 30.9697 207.726 31.1726C207.988 31.3746 208.33 31.4756 208.749 31.4756ZM208.603 32.1272C208 32.1272 207.511 31.9663 207.136 31.6445C206.762 31.3183 206.574 30.8956 206.574 30.3745C206.574 29.3216 207.316 28.7434 208.8 28.6388L210.659 28.5146V27.998C210.659 27.5555 210.526 27.2132 210.26 26.9701C209.99 26.7261 209.612 26.6046 209.125 26.6046C208.702 26.6046 208.352 26.7056 208.075 26.9076C207.798 27.114 207.625 27.3965 207.557 27.7566H206.844C206.875 27.224 207.104 26.7896 207.535 26.4526C207.962 26.1121 208.494 25.9414 209.131 25.9414C209.824 25.9414 210.376 26.1211 210.788 26.4812C211.197 26.8405 211.401 27.3258 211.401 27.9363V32.0601H210.693V30.9027H210.676C210.511 31.27 210.241 31.5659 209.867 31.7902C209.489 32.0154 209.067 32.1272 208.603 32.1272Z" fill="white"/>
<path d="M220.363 32.0547H219.385L216.672 29.0937H216.638V32.0547H215.902V29.0937H215.868L213.155 32.0547H212.199L215.126 28.897L212.289 26.0039H213.227L215.868 28.7281H215.902V26.0039H216.638V28.7281H216.672L219.313 26.0039H220.245L217.419 28.88L220.363 32.0547Z" fill="white"/>
<path d="M221.234 32.0547V26.0039H221.971V30.8973H222.005L225.443 26.0039H226.18V32.0547H225.443V27.1613H225.404L221.971 32.0547H221.234Z" fill="white"/>
<path fill-rule="evenodd" clip-rule="evenodd" d="M28.7077 21.7946L28.7953 21.4441L31.3361 29.2416L31.0294 29.6797V29.6358L30.9418 29.8111C23.6262 39.536 8.11887 37.6523 2.38029 27.7522C-3.70875 17.2387 2.4679 3.35224 14.3831 0.855293C15.6097 0.636265 16.8801 0.504845 18.1505 0.504845C23.8014 0.504845 29.759 2.95798 32.7817 7.90806L35.1472 1.46858H42.5066L36.9432 16.9321L40.5353 26.9199C40.9296 27.9274 42.0247 28.4969 43.0323 28.2341L43.3389 28.1464L45.3102 34.7612L42.9447 35.3744C39.5716 36.2067 36.1109 34.4983 34.8405 31.2567C34.5339 30.6872 34.2273 30.0739 34.0082 29.4168L32.6941 25.9561L32.6064 25.8247V25.7809L29.6714 16.8883C28.0506 11.982 25.028 9.6165 22.6187 8.65276C21.3045 8.03948 19.8151 7.73284 18.2381 7.73284C12.149 7.73284 7.24275 12.5953 7.24275 18.5529C7.24275 24.5105 12.149 29.373 18.2381 29.373C23.1443 29.373 27.3059 26.1752 28.7077 21.7946Z" fill="url(#paint0_linear_1_1191)"/>
<defs>
<linearGradient id="paint0_linear_1_1191" x1="0.0585664" y1="1.00424" x2="43.8646" y2="1.00424" gradientUnits="userSpaceOnUse">
<stop stop-color="#7A5FFF"/>
<stop offset="1" stop-color="#00E824"/>
</linearGradient>
</defs>
</svg>
