<svg width="20" height="16" viewBox="0 0 20 16" fill="none" xmlns="http://www.w3.org/2000/svg">
<path d="M19.5414 1.5158C19.6812 0.92976 19.5414 0.5 18.8807 0.5H16.6919C16.135 0.5 15.8805 0.871787 15.7407 1.28012C15.7407 1.28012 14.6279 4.70686 13.0509 6.92875C12.5419 7.57528 12.3093 7.77945 12.0319 7.77945C11.8931 7.77945 11.6915 7.57528 11.6915 6.98925V1.5158C11.6915 0.812553 11.5308 0.5 11.0667 0.5H7.62734C7.28001 0.5 7.07041 0.825156 7.07041 1.13519C7.07041 1.80062 7.85889 1.95438 7.93974 3.82969V7.89792C7.93974 8.78894 7.81298 8.95152 7.53352 8.95152C6.79194 8.95152 4.98741 5.51218 3.91647 1.57503C3.70787 0.810032 3.49728 0.501261 2.93835 0.501261H0.750557C0.12476 0.501261 0 0.873047 0 1.28138C0 2.01487 0.741575 5.64451 3.45436 10.445C5.26288 13.723 7.80899 15.5 10.1285 15.5C11.5189 15.5 11.6905 15.1055 11.6905 14.425V11.9472C11.6905 11.1583 11.8233 10.9995 12.2634 10.9995C12.5868 10.9995 13.1437 11.2062 14.4422 12.7853C15.9254 14.6581 16.1709 15.4987 17.0043 15.4987H19.1921C19.8169 15.4987 20.1293 15.1043 19.9497 14.3254C19.753 13.5503 19.0444 12.4224 18.1042 11.0877C17.5932 10.3265 16.8296 9.50731 16.5971 9.09772C16.2727 8.56965 16.3665 8.3365 16.5971 7.86767C16.5981 7.86893 19.264 3.12771 19.5414 1.5158Z" fill="white"/>
</svg>
