<svg width="360" height="252" viewBox="0 0 360 252" fill="none" xmlns="http://www.w3.org/2000/svg">
<path d="M-71.877 23.9531C-47.2748 36.2898 -25.4779 53.5624 -7.84544 74.694C18.1417 106.226 16.7282 125.544 41.6884 143.557C65.9479 161.05 99.2443 165.87 126.258 159.262C163.119 150.237 164.786 125.676 212.036 86.7751C239.824 63.9176 291.931 21.0053 353.389 25.1612C384.438 27.2634 415.306 41.205 444 54.156C479.169 70.0306 484.219 78.1854 503.199 81.9427C525.742 86.4127 560.597 83.2353 610.723 43.283" stroke="#B195FF" stroke-opacity="0.5" stroke-width="0.5" stroke-miterlimit="10"/>
<path d="M-72.5664 28.4727C-50.3975 39.3106 -30.4123 54.1353 -13.6091 72.2064C-12.0023 73.9582 -10.3954 75.7583 -8.77652 77.6067C17.4764 108.148 16.4374 126.596 41.0835 144.162C51.8266 151.848 63.9908 157.323 76.8686 160.266C86.0928 162.366 95.5532 163.243 105.006 162.875C112.075 162.597 119.091 161.523 125.919 159.674C133.529 157.718 140.762 154.518 147.327 150.202C159.409 142.229 167.866 131.464 180.878 117.958C190.679 107.793 201.342 98.4956 212.748 90.1711C218.789 85.7011 225.845 80.3129 234 74.7918C255.819 59.9803 283.739 43.8882 317.241 38.3309C328.608 36.3912 340.159 35.7428 351.673 36.3979C353.436 36.4945 355.188 36.6395 356.916 36.8087C374.023 38.4638 390.321 42.8492 406.969 48.6723C419.425 52.9732 431.205 58.3373 442.887 63.3751C447.78 65.5256 452.154 67.4827 456.104 69.319C479.965 80.4458 486.163 86.4139 502.461 89.0234C514.844 91.0047 530.864 90.6544 551.197 83.599C567.869 77.8242 587.61 67.4223 610.722 50.2187" stroke="#B195FF" stroke-opacity="0.5" stroke-width="0.5" stroke-miterlimit="10"/>
<path d="M-73.207 33.0156C-51.2677 43.444 -31.4055 57.7713 -14.588 75.2997C-12.9771 76.991 -11.3663 78.7227 -9.75543 80.4946C16.8237 110.057 16.1834 127.611 40.4912 144.766C51.26 152.553 63.4629 158.133 76.3972 161.185C85.6757 163.298 95.1981 164.143 104.704 163.697C111.784 163.337 118.794 162.12 125.581 160.073C133.152 157.885 140.347 154.556 146.916 150.203C159.481 141.988 168.397 131.574 181.264 118.961C191.111 109.388 201.898 100.832 213.461 93.4214C219.502 89.4588 226.4 84.6021 234.47 79.7938C255.975 66.9757 282.192 53.5294 315.356 49.144C326.813 47.5654 338.392 47.0477 349.945 47.5976C351.733 47.6942 353.497 47.815 355.236 47.9721C372.634 49.4943 388.521 53.2516 405.507 58.4344C418.301 62.3487 429.972 67.616 441.751 72.5814C446.644 74.6352 451.066 76.5078 455.113 78.2595C479.047 88.6614 485.462 94.1463 501.699 96.0792C514.071 97.5531 529.97 96.7437 550.412 89.6037C567.108 83.7565 587.103 73.5479 610.722 57.1779" stroke="#B195FF" stroke-opacity="0.5" stroke-width="0.5" stroke-miterlimit="10"/>
<path d="M-73.9678 37.4844C-52.2079 47.5178 -32.4267 61.3774 -15.5662 78.4032C-13.9594 80.0463 -12.3405 81.7135 -10.7336 83.4169C16.1958 111.989 15.8938 128.673 39.8754 145.369C51.2319 153.27 62.4193 158.96 75.8901 162.114C85.2309 164.244 94.8239 165.058 104.39 164.53C111.483 164.084 118.489 162.719 125.231 160.471C132.768 158.051 139.933 154.595 146.518 150.202C159.542 141.745 168.905 131.705 181.639 119.999C191.541 111.013 202.46 103.216 214.174 96.7666C220.275 93.3114 226.968 88.9863 234.942 84.8908C256.241 73.9453 280.646 63.2293 313.471 59.9916C325.019 58.7788 336.639 58.3953 348.241 58.8439C350.042 58.9284 351.866 59.0372 353.557 59.1821C370.627 60.5802 387.522 63.6185 404.009 68.2551C417.142 71.7707 428.716 76.9897 440.64 81.8222C445.533 83.8035 449.991 85.5794 454.147 87.2466C478.141 96.9116 484.786 101.889 500.951 103.182C513.322 104.172 529.136 102.868 549.651 95.643C566.383 89.7958 586.596 79.6597 610.722 64.0629" stroke="#B195FF" stroke-opacity="0.5" stroke-width="0.5" stroke-miterlimit="10"/>
<path d="M-74.6689 41.9922C-53.1193 51.6356 -33.4425 65.0095 -16.5453 81.4976C-14.9384 83.0923 -13.3074 84.687 -11.7127 86.33C15.5067 113.96 15.6276 129.665 39.2709 145.987C50.8811 153.972 61.694 159.82 75.4064 163.045C84.8009 165.197 94.4579 165.974 104.076 165.353C111.201 164.836 118.22 163.328 124.928 160.871C132.415 158.24 139.543 154.681 146.143 150.276C159.626 141.565 169.496 131.936 182.049 121.027C190.905 113.343 201.379 106.626 214.923 100.103C221.072 97.1306 227.62 93.325 235.461 89.9544C256.676 80.8331 279.147 72.9199 311.574 70.8299C323.195 69.9728 334.853 69.7187 346.501 70.0688C348.326 70.1413 350.126 70.2379 351.853 70.3587C368.954 71.4799 385.929 74.0504 402.595 78.0423C416.09 81.1593 427.495 86.3421 439.54 91.0054C444.373 92.9142 448.952 94.6298 453.204 96.1882C477.246 105.177 484.121 109.586 500.237 110.227C512.609 110.722 528.315 108.946 548.913 101.649C565.646 95.7171 586.1 85.7622 610.722 70.9628" stroke="#B195FF" stroke-opacity="0.5" stroke-width="0.5" stroke-miterlimit="10"/>
<path d="M-75.3574 46.5C-54.023 55.7598 -34.4554 68.6479 -17.5237 84.5919C-15.9168 86.1262 -14.2859 87.6484 -12.6911 89.219C14.8545 115.797 15.3499 130.718 38.6428 146.58C50.5068 154.663 60.9451 160.667 74.8871 163.965C84.3441 166.135 94.0729 166.877 103.75 166.164C110.877 165.572 117.876 163.923 124.518 161.271C131.96 158.418 139.057 154.734 145.672 150.289C159.626 141.349 170.016 132.167 182.363 122.056C191.485 114.614 202.189 108.766 215.575 103.426C221.797 100.938 228.2 97.6758 235.872 94.9696C257.172 87.6001 277.577 82.5622 309.665 81.5957C320.816 81.2575 333.152 80.8346 344.762 81.2333C346.61 81.2937 348.386 81.3783 350.15 81.4749C367.256 82.3185 384.276 84.4182 401.073 87.7571C414.907 90.4754 426.227 95.622 438.405 100.189C443.298 102.025 447.853 103.608 452.214 105.106C476.304 113.478 483.444 117.586 499.452 117.332C511.824 117.138 527.433 115.073 548.104 107.667C564.849 101.626 585.557 91.8768 610.674 77.8868" stroke="#B195FF" stroke-opacity="0.5" stroke-width="0.5" stroke-miterlimit="10"/>
<path d="M-76.0576 50.9922C-54.9345 59.8778 -35.4728 72.2841 -18.5017 87.6826C-16.8949 89.1565 -15.2518 90.6184 -13.6692 92.1164C14.2147 117.728 15.0846 131.731 38.0272 147.182C50.1086 155.337 60.1966 161.511 74.3923 164.893C83.8937 167.069 93.6725 167.774 103.388 166.983C110.538 166.309 117.538 164.516 124.131 161.668C131.513 158.58 138.574 154.777 145.214 150.311C159.627 141.118 170.585 132.335 182.666 123.068C192.065 115.82 203.011 110.915 216.216 106.747C222.535 104.741 229.409 103.581 236.271 100.09C258.537 99.1597 276.055 90.4251 307.697 92.4789C318.872 93.2158 331.4 92.1889 342.962 92.4789C344.835 92.5393 346.647 92.5997 348.387 92.6842C367.016 93.5662 381.272 94.5931 399.539 97.5167C413.711 99.8242 424.91 104.947 437.221 109.368C442.054 111.132 446.705 112.63 451.175 114.044C475.278 121.679 482.672 124.917 498.655 124.313C511.039 123.817 526.551 121.087 547.295 113.621C564.064 107.58 584.989 97.9154 610.626 84.7348" stroke="#B195FF" stroke-opacity="0.5" stroke-width="0.5" stroke-miterlimit="10"/>
<path d="M-76.7588 55.5C-55.8494 64.0108 -36.4946 75.9271 -19.4808 90.7649C-17.8619 92.1905 -16.2188 93.5798 -14.6482 95.0054C13.6344 119.627 14.8667 132.735 37.4589 147.788C49.8424 156.027 59.5075 162.358 73.9327 165.825C83.5164 168.028 93.3894 168.692 103.182 167.794C111.143 167.13 117.68 164.738 123.889 162.056C131.216 158.74 138.252 154.816 144.923 150.325C159.795 140.89 171.369 132.566 183.173 124.085C192.838 117.114 204.074 113.091 217.001 110.058C223.452 108.548 230.17 108.198 236.826 105.154C259.092 106.869 274.557 102.073 305.884 103.293C317.12 103.74 329.793 103.474 341.319 103.728C343.203 103.728 345.04 103.813 346.767 103.873C365.711 104.586 379.556 104.948 398.15 107.376C412.647 109.285 423.738 114.371 436.182 118.66C441.014 120.352 445.702 121.753 450.281 123.082C474.444 130.065 482.067 132.747 497.99 131.454C510.374 130.476 525.778 127.274 546.606 119.723C563.387 113.683 584.554 104.115 610.698 91.7435" stroke="#B195FF" stroke-opacity="0.5" stroke-width="0.5" stroke-miterlimit="10"/>
<path d="M-77.4473 59.9922C-56.7612 68.1413 -37.5198 79.5628 -20.4592 93.8194C-18.8403 95.1967 -17.1851 96.5256 -15.5542 97.8666C13.0184 121.497 14.6494 133.699 36.855 148.342C49.4922 156.666 58.7828 163.165 73.4496 166.693C83.0793 168.92 93.0085 169.557 102.844 168.578C110.914 167.841 117.341 165.255 123.515 162.416C131.138 158.913 137.409 154.805 144.476 150.335C159.82 140.67 173.701 134.859 183.523 125.098C194.65 120.35 205.053 111.289 217.726 113.379C224.322 114.466 230.895 112.799 237.322 110.214C259.6 114.563 273.095 111.82 304.024 114.116C315.308 114.949 328.186 114.756 339.615 114.937C341.536 114.937 343.373 114.937 345.112 115.046C364.346 115.59 377.793 115.251 396.7 117.16C411.572 118.646 422.518 123.708 435.083 127.864C439.915 129.483 444.651 130.8 449.327 132.032C473.49 138.375 481.415 140.416 497.278 138.52C509.673 137.034 524.981 133.361 545.869 125.726C562.675 119.613 584.022 110.214 610.722 98.6519" stroke="#B195FF" stroke-opacity="0.5" stroke-width="0.5" stroke-miterlimit="10"/>
<path d="M-78.1475 64.4844C-57.6728 72.2888 -38.5398 83.2369 -21.4373 96.9344C-19.8184 98.2512 -18.1632 99.4593 -16.5201 100.776C12.4753 123.416 14.372 134.712 36.2515 148.956C49.1544 157.352 58.0584 164.021 72.9548 167.633C82.6452 169.871 92.6417 170.471 102.53 169.409C110.709 168.6 117.028 165.785 123.177 162.825C130.656 159.201 136.853 154.9 144.066 150.345C159.869 140.414 174.475 135.292 183.935 126.098C195.448 121.87 206.503 113.389 218.476 116.687C225.024 118.487 231.632 117.412 237.806 115.274C260.096 122.256 271.634 121.592 302.151 124.938C313.484 126.147 326.459 126.05 337.912 126.147H343.434C362.981 126.509 376.053 125.506 395.251 126.871C410.473 127.947 421.286 132.997 433.984 137.008C438.816 138.554 443.589 139.774 448.373 140.91C472.536 146.636 480.751 148.05 496.554 145.525C508.949 143.531 524.16 139.388 545.121 131.68C561.938 125.506 583.576 116.264 610.735 105.5" stroke="#B195FF" stroke-opacity="0.5" stroke-width="0.5" stroke-miterlimit="10"/>
<path d="M-78.8496 68.9688C-58.6109 76.4414 -39.6054 86.903 -22.4656 100.005C-20.8346 101.213 -19.1795 102.421 -17.5364 103.63C11.7731 125.267 14.0806 135.657 35.6218 149.538C48.7906 157.995 57.3684 164.845 72.446 168.53C82.1904 170.796 92.2528 171.364 102.19 170.209C110.49 169.327 116.688 166.355 122.801 163.202C130.135 159.384 136.272 154.974 143.63 150.347C159.903 140.175 175.223 135.717 184.247 127.103C196.16 123.382 207.202 122.053 219.126 119.987C225.965 121.292 232.271 122.005 238.239 120.326C260.529 129.991 270.086 131.368 300.217 135.729C311.598 137.384 324.742 137.469 336.147 137.336C338.104 137.336 339.977 137.336 341.705 137.336C361.566 137.082 374.204 135.826 393.739 136.672C409.324 137.336 419.992 142.362 432.835 146.24C437.667 147.702 442.5 148.849 447.332 149.864C471.495 154.974 479.952 155.736 495.731 152.582C508.138 150.094 523.24 145.479 544.298 137.686C561.127 131.465 582.958 122.367 610.661 112.4" stroke="#B195FF" stroke-opacity="0.5" stroke-width="0.5" stroke-miterlimit="10"/>
<path d="M-79.5381 73.4648C-59.499 80.6016 -40.588 90.5777 -23.3837 103.088C-21.7647 104.296 -20.0975 105.419 -18.4544 106.555C11.2417 127.178 13.8875 136.673 35.0421 150.132C48.4766 158.685 56.6074 165.692 71.975 169.462C81.803 171.754 91.9604 172.282 101.973 171.02C110.43 170.066 116.531 166.913 122.512 163.602C129.76 159.628 135.801 155.073 143.279 150.313C160 139.899 176.056 136.106 184.67 128.072C196.969 124.87 208.181 124.447 219.888 123.239C226.81 125.172 233.02 126.549 238.771 125.317C261.061 137.58 268.648 141.107 298.381 146.483C309.81 148.549 323.111 148.694 334.48 148.489C336.461 148.489 338.334 148.489 340.074 148.489C360.225 148.042 372.476 146.073 392.326 146.423C408.249 146.677 418.796 151.69 431.772 155.423C436.604 156.825 441.437 157.84 446.451 158.818C470.613 163.337 479.409 163.433 495.078 159.652C507.486 156.656 522.491 151.582 543.621 143.705C560.463 137.435 582.584 128.482 610.746 119.325" stroke="#B195FF" stroke-opacity="0.5" stroke-width="0.5" stroke-miterlimit="10"/>
<path d="M-80.2383 77.9453C-60.4144 84.764 -41.6151 94.259 -24.3617 106.167C-22.7307 107.375 -21.0635 108.366 -19.4204 109.441C10.6744 129.037 13.6585 137.638 34.4385 150.722C48.1389 159.336 55.883 166.512 71.4922 170.366C81.3564 172.673 91.5578 173.169 101.599 171.828C110.056 170.789 116.193 167.455 122.138 163.975C129.193 159.843 135.185 155.144 142.845 150.372C160.037 139.704 176.806 136.587 185.021 129.121C197.719 126.427 209.051 126.838 220.577 126.62C227.572 129.169 233.697 131.223 239.219 130.438C261.521 145.346 267.127 150.976 296.472 157.367C307.95 159.856 321.408 159.88 332.717 159.783C334.722 159.783 336.607 159.783 338.347 159.783C358.812 159.143 370.664 157.016 390.828 156.328C407.09 155.772 417.516 161.16 430.624 164.785C435.505 166.101 440.454 167.149 445.448 167.926C469.611 171.864 478.696 171.284 494.306 166.875C506.725 163.371 521.622 157.838 542.825 149.876C559.739 143.558 582.041 134.739 610.71 126.391" stroke="#B195FF" stroke-opacity="0.5" stroke-width="0.5" stroke-miterlimit="10"/>
<path d="M-80.9395 79.8398C-61.3282 86.3679 -42.6411 95.3986 -25.3408 106.708C-23.7098 107.796 -22.0305 108.786 -20.3753 109.789C10.1061 128.358 13.4527 136.066 33.834 148.763C47.8001 157.461 55.1577 164.807 70.9964 168.733C80.9204 171.063 91.1912 171.526 101.285 170.098C109.911 168.975 115.915 165.471 121.823 161.823C128.697 157.449 134.593 152.617 142.434 147.784C160.085 136.911 177.591 134.41 185.395 127.536C198.48 125.35 209.945 126.63 221.289 127.331C228.357 130.508 234.386 133.226 239.689 132.9C262.004 150.442 265.64 158.271 294.575 165.519C306.113 168.431 319.729 168.491 331.013 168.31L336.667 168.201C357.447 167.839 368.888 164.094 389.366 163.369C406.002 162.765 416.271 167.779 429.512 171.222C434.447 172.47 439.449 173.434 444.493 174.109C468.596 177.468 478.031 176.187 493.568 171.161C506 167.15 520.8 161.158 542.075 153.112C558.989 146.745 581.545 138.071 610.722 130.532" stroke="#B195FF" stroke-opacity="0.5" stroke-width="0.5" stroke-miterlimit="10"/>
<path d="M-81.6631 80.6016C-62.2715 86.7979 -43.7004 95.3166 -26.3544 105.972C-24.7113 107.011 -23.032 107.929 -21.3768 108.859C9.55162 126.425 13.1881 133.287 33.2312 145.562C47.4752 154.321 54.4341 161.847 70.5145 165.858C80.5021 168.192 90.8428 168.602 100.984 167.066C109.707 165.858 115.639 162.234 121.462 158.368C128.215 153.934 134.075 148.933 142 144.016C160.122 132.865 178.341 131.065 185.747 124.77C199.23 123.091 211.251 123.357 221.991 126.872C229.687 129.397 235.075 134.121 240.113 134.121C262.428 154.297 264.083 164.324 292.631 172.551C304.205 175.91 318.002 175.994 329.226 175.741C331.28 175.741 333.189 175.644 334.916 175.596C356.01 175.04 367.041 170.606 387.845 169.35C404.819 168.323 414.968 173.336 428.342 176.598C433.323 177.794 438.375 178.674 443.468 179.232C467.558 182.035 477.296 180.042 492.772 174.4C505.204 169.869 519.907 163.418 541.255 155.299C558.169 148.884 580.979 140.355 610.663 133.553" stroke="#B195FF" stroke-opacity="0.5" stroke-width="0.5" stroke-miterlimit="10"/>
<path d="M-82.3281 81.3398C-63.1483 87.2426 -44.6897 95.2742 -27.2973 105.285C-25.6421 106.263 -23.9507 107.109 -22.3076 107.979C9.00739 124.457 12.9701 130.401 32.6266 142.362C47.1243 151.181 53.6966 158.889 70.079 162.972C80.1185 165.375 90.532 165.786 100.73 164.18C109.573 162.888 115.421 159.046 121.171 155.071C127.792 150.492 133.579 145.322 141.71 140.332C160.279 128.94 179.222 127.816 186.242 122.09C200.099 120.881 212.362 122.222 222.8 126.499C230.641 129.713 235.872 134.956 240.729 135.548C263.043 158.369 262.717 170.583 290.891 179.741C302.513 183.546 316.443 183.643 327.655 183.365L333.381 183.172C354.778 182.435 365.409 177.3 386.54 175.537C403.876 174.075 413.88 179.161 427.399 182.242C432.428 183.395 437.53 184.202 442.67 184.658C466.736 186.917 476.788 184.199 492.204 177.941C504.635 172.903 519.23 165.992 540.662 157.789C563.349 148.763 586.795 141.777 610.722 136.913" stroke="#B195FF" stroke-opacity="0.5" stroke-width="0.5" stroke-miterlimit="10"/>
<path d="M-83.0293 81.5781C-64.0572 87.216 -45.7109 94.7778 -28.2763 104.146C-26.6091 105.064 -24.9177 105.849 -23.2746 106.647C8.46329 122.074 12.7401 127.184 32.022 138.734C46.8097 147.614 52.9712 155.503 69.5348 159.671C79.638 162.084 90.1239 162.438 100.367 160.71C109.307 159.332 115.082 155.321 120.772 151.178C127.248 146.454 132.962 141.126 141.214 136.064C160.254 124.43 179.874 123.983 186.531 118.824C200.787 118.172 213.243 120.516 223.428 125.529C231.402 129.456 236.488 135.303 241.115 136.33C263.442 161.785 261.122 176.198 288.909 186.285C300.58 190.538 314.679 190.635 325.842 190.26C327.932 190.188 329.877 190.091 331.605 190.019C353.352 189.088 363.536 183.277 384.969 180.994C402.644 179.109 412.526 184.147 426.178 187.131C431.258 188.216 436.41 188.927 441.594 189.257C465.648 190.985 476.002 187.518 491.358 180.656C503.789 175.098 518.287 167.741 539.792 159.441C562.679 150.366 586.451 143.706 610.722 139.568" stroke="#B195FF" stroke-opacity="0.5" stroke-width="0.5" stroke-miterlimit="10"/>
<path d="M-83.7295 80.8906C-64.9616 86.2588 -46.7266 93.3399 -29.2544 102.045C-27.5871 102.902 -25.8837 103.627 -24.2406 104.364C7.93222 118.705 12.5715 122.909 31.4185 134.144C46.484 143.084 52.2469 151.167 69.0521 155.395C79.2111 157.837 89.7645 158.157 100.053 156.337C109.102 154.864 114.804 150.696 120.422 146.383C126.765 141.55 132.407 136.029 140.804 130.895C160.303 119.019 180.672 119.224 186.906 114.657C201.549 114.512 214.174 117.919 224.141 123.67C232.212 128.333 237.189 134.736 241.599 136.21C263.925 164.311 259.6 180.91 287.025 191.916C298.72 196.628 313 196.749 324.127 196.29C326.229 196.205 328.186 196.097 329.914 196.012C351.939 194.9 361.724 188.377 383.471 185.586C401.496 183.266 411.258 188.316 425.019 191.155C430.155 192.176 435.361 192.802 440.592 193.028C464.634 194.236 475.278 190.008 490.573 182.541C503.005 176.501 517.418 168.648 538.995 160.276C562.049 151.109 586.117 144.737 610.686 141.296" stroke="#B195FF" stroke-opacity="0.5" stroke-width="0.5" stroke-miterlimit="10"/>
<path d="M-84.4189 80.2031C-65.8566 85.3234 -47.7365 91.9289 -30.2338 99.9558C-28.5545 100.753 -26.851 101.393 -25.2079 102.07C7.41191 115.359 12.2445 118.682 30.8136 129.555C46.1449 138.543 51.5212 146.819 68.556 151.132C78.7745 153.609 89.4018 153.893 99.7381 151.965C108.896 150.383 114.526 146.082 120.083 141.587C126.293 136.574 131.851 130.932 140.392 125.725C160.363 113.644 181.469 114.465 187.28 110.479C200.617 110.637 213.638 114.561 224.841 121.799C232.996 127.211 237.889 134.158 242.069 136.091C264.408 166.825 258.065 185.623 285.14 197.547C296.859 202.73 311.32 202.827 322.399 202.319C324.537 202.223 326.494 202.102 328.234 201.993C350.548 200.664 359.972 193.536 382.033 190.178C400.384 187.435 410.049 192.485 423.943 195.179C428.776 196.11 433.874 196.255 439.649 196.786C463.594 198.997 474.625 192.497 489.859 184.415C502.291 177.819 516.607 169.555 538.257 161.099C561.5 151.841 585.881 145.746 610.746 142.977" stroke="#B195FF" stroke-opacity="0.5" stroke-width="0.5" stroke-miterlimit="10"/>
<path d="M-85.1191 79.5156C-66.7535 84.3944 -48.7425 90.5217 -31.2119 97.8548C-29.5205 98.5797 -27.817 99.1717 -26.1618 99.7757C6.86877 111.857 12.0759 114.454 30.2101 124.965C45.8313 134.014 50.7485 142.471 68.0732 146.868C78.3683 149.377 89.085 149.625 99.4849 147.593C108.739 145.902 114.297 141.456 119.794 136.792C125.834 131.634 131.344 125.835 140.03 120.555C160.472 108.184 182.315 109.682 187.703 106.312C201.397 107.03 214.569 111.793 225.554 120C233.758 126.149 238.59 133.651 242.541 136.031C264.892 169.399 256.519 190.396 283.243 203.251C294.998 208.893 309.629 208.977 320.696 208.409C322.846 208.301 324.827 208.156 326.555 208.047C349.184 206.513 358.196 198.648 380.583 194.83C399.297 191.653 408.781 196.739 422.868 199.264C428.128 199.996 433.423 200.448 438.731 200.617C462.713 202.176 473.985 195.048 489.171 186.361C501.591 179.246 515.823 170.535 537.497 161.994C560.913 152.664 585.588 146.874 610.71 144.814" stroke="#B195FF" stroke-opacity="0.5" stroke-width="0.5" stroke-miterlimit="10"/>
<path d="M-85.8193 78.8242C-67.6421 83.4737 -49.7345 89.1201 -32.1778 95.7378C-30.4864 96.4023 -28.783 96.9459 -27.1278 97.4654C6.33771 108.483 11.8589 110.199 29.6548 120.42C45.5057 129.456 50.0241 138.119 67.5784 142.589C77.9167 145.134 88.6916 145.348 99.123 143.217C108.486 141.417 113.983 136.826 119.396 131.993C125.34 126.702 130.74 120.734 139.584 115.382C160.472 102.769 183.077 104.968 188.03 102.093C202.119 103.343 215.476 108.921 226.268 118.064C234.495 124.974 239.28 133.008 243.013 135.835C265.363 171.849 254.961 195.117 281.359 208.817C293.138 214.931 307.938 215.003 318.956 214.375C321.131 214.254 323.125 214.097 324.852 213.964C347.807 212.224 356.397 203.683 379.11 199.358C398.174 195.734 407.525 200.856 421.721 203.224C427.03 203.916 432.376 204.283 437.729 204.323C461.747 205.229 473.26 197.473 488.386 188.171C500.818 180.548 514.965 171.378 536.712 162.8C560.316 153.388 585.299 147.891 610.674 146.527" stroke="#B195FF" stroke-opacity="0.5" stroke-width="0.5" stroke-miterlimit="10"/>
<path d="M-86.4961 78.1406C-65.8006 83.3959 -47.2315 88.7479 -33.1446 93.6528C-31.429 94.2569 -29.7255 94.716 -28.0824 95.1992C5.83009 105.057 11.6533 105.976 29.0143 115.737C45.1914 124.871 49.3594 133.726 67.107 138.281C77.5021 140.857 88.3469 141.034 98.8208 138.8C108.293 136.879 113.729 132.168 119.069 127.154C124.868 121.717 130.196 115.592 139.185 110.168C160.545 97.3134 183.886 100.177 188.417 97.9296C202.891 99.725 216.411 106.11 226.993 116.148C235.232 123.819 240.512 131.914 243.508 135.671C271.295 170.622 253.402 199.834 279.486 214.404C291.278 221 306.283 221.049 317.253 220.36C319.452 220.227 321.445 220.046 323.185 219.901C346.417 217.956 354.596 208.738 377.648 203.918C397.063 199.846 406.281 204.993 420.621 207.192C425.967 207.984 431.375 208.271 436.774 208.049C460.804 207.228 472.584 199.907 487.661 190.012C500.081 181.857 514.119 172.241 535.987 163.542C559.793 154.051 585.091 148.845 610.71 148.163" stroke="#B195FF" stroke-opacity="0.5" stroke-width="0.5" stroke-miterlimit="10"/>
<path d="M-87.209 77.4492C-66.284 82.5475 -47.8357 87.3799 -34.1353 91.5479C-32.4077 92.0795 -30.7042 92.4782 -29.0611 92.901C5.32258 101.599 11.4237 101.732 28.3981 111.18C44.865 120.361 48.6224 129.434 66.5995 134.062C77.0593 136.671 87.983 136.812 98.5065 134.472C108.075 132.418 113.439 127.586 118.707 122.391C124.385 116.81 129.58 110.527 138.762 105.03C160.581 91.9224 184.587 95.4622 188.791 93.7829C205.391 96.1992 218.439 104.849 227.693 114.321C235.921 122.778 241.128 131.512 243.967 135.584C270.848 174.086 251.82 204.628 277.577 220.079C289.381 227.147 304.591 227.171 315.513 226.422C317.736 226.265 319.754 226.084 321.481 225.927C345.028 223.764 352.808 213.845 376.174 208.542C395.927 204.036 405.012 209.218 419.486 211.248C424.886 211.98 430.345 212.178 435.783 211.84C459.825 210.547 471.883 202.429 486.912 191.918C499.32 183.244 513.274 173.18 535.238 164.397C552.26 157.596 577.003 150.214 610.722 149.9" stroke="#B195FF" stroke-opacity="0.5" stroke-width="0.5" stroke-miterlimit="10"/>
<path d="M-87.9102 76.7617C-66.7677 81.7392 -48.4402 85.9917 -35.1144 89.459C-33.3746 89.906 -31.6712 90.2443 -30.0281 90.6671C4.75432 98.1212 11.2058 97.4809 27.7936 106.59C44.3814 115.699 47.8971 125.086 66.1158 129.786C76.6307 132.44 87.6271 132.548 98.192 130.1C107.857 127.901 113.173 122.972 118.368 117.608C123.913 111.894 129.072 105.442 138.351 99.873C160.641 86.5837 185.372 90.7275 189.165 89.6281C206.164 92.5518 219.224 102.217 228.406 112.462C236.609 121.619 241.695 131.054 244.438 135.416C270.28 177.398 250.225 209.352 275.692 225.662C287.496 233.225 302.9 233.213 313.797 232.403C316.032 232.234 318.062 232.029 319.838 231.86C343.686 229.443 351.068 218.909 374.748 213.085C394.851 208.144 403.816 213.363 418.422 215.224C423.877 215.898 429.387 216.012 434.865 215.562C458.919 213.786 471.23 204.87 486.223 193.756C498.619 184.562 512.488 174.051 534.549 165.184C551.596 158.334 576.568 151.085 610.794 151.604" stroke="#B195FF" stroke-opacity="0.5" stroke-width="0.5" stroke-miterlimit="10"/>
<path d="M-88.5986 76.0703C-67.2508 80.9028 -49.0441 84.5996 -36.0928 87.3783C-34.341 87.7528 -32.6375 88.0427 -30.9944 88.3327C4.21082 94.627 10.9885 93.2256 27.1897 102.009C44.2366 111.239 47.1603 120.734 65.6207 125.518C76.1951 128.219 87.2701 128.29 97.8781 125.724C107.64 123.368 112.907 118.342 118.03 112.821C123.442 106.95 128.517 100.353 137.952 94.6994C160.689 81.1082 186.338 84.213 189.54 85.4574C206.067 91.8483 219.997 99.5561 229.118 110.598C237.286 120.493 242.323 130.58 244.921 135.353C269.627 180.717 248.618 214.194 273.808 231.361C285.611 239.407 301.22 239.347 312.069 238.489C314.341 238.308 316.37 238.091 318.11 237.909C342.273 235.324 349.232 224.064 373.238 217.734C393.679 212.346 402.511 217.613 417.262 219.304C422.773 219.92 428.334 219.948 433.85 219.389C457.916 217.142 470.493 207.417 485.426 195.698C497.821 186.033 511.606 175.015 533.751 166.063C550.81 159.164 576.036 152.073 610.758 153.39" stroke="#B195FF" stroke-opacity="0.5" stroke-width="0.5" stroke-miterlimit="10"/>
<path d="M-89.2988 75.3828C-67.7335 80.1307 -49.6597 83.1752 -37.0709 85.2531C-35.307 85.5431 -33.6035 85.7847 -31.9483 86.0142C3.66768 91.1125 10.7836 88.9741 26.5861 97.4068C43.9834 106.709 46.3996 116.374 65.1379 121.207C75.7737 123.942 86.9246 123.975 97.5765 121.303C107.411 118.778 112.642 113.68 117.68 108.014C122.972 101.973 127.961 95.2442 137.542 89.5298C160.75 75.6969 186.943 80.9281 189.915 81.2784C208.037 83.4409 220.759 96.8873 229.783 108.727C235.888 116.986 241.104 125.867 245.344 135.221C268.903 183.884 246.963 218.967 271.923 236.992C283.715 245.522 299.542 245.449 310.354 244.519C312.638 244.326 314.692 244.084 316.395 243.891C340.848 241.052 347.408 229.128 371.752 222.326C392.52 216.479 401.243 221.831 416.127 223.329C421.694 223.885 427.306 223.824 432.86 223.147C456.95 220.429 469.757 209.858 484.665 197.572C497.037 187.315 510.737 175.922 532.991 166.898C550.074 159.951 575.517 152.992 610.759 155.118" stroke="#B195FF" stroke-opacity="0.5" stroke-width="0.5" stroke-miterlimit="10"/>
<path d="M-90 74.6953C-68.2534 79.2378 -50.2884 81.7265 -38.0499 83.1521C2.44701 87.8638 9.865 84.3602 25.9816 92.817C43.6205 102.083 45.7106 112.038 64.6422 116.979C75.3376 119.761 86.5666 119.761 97.262 116.979C117.535 111.422 118.09 95.6924 137.131 84.3602C160.798 70.2736 187.703 76.4712 190.289 77.1115C224.745 85.5683 240.813 123.394 245.863 135.101C268.25 186.953 245.38 223.74 270.026 242.623C284.331 253.581 304.917 251.08 314.728 249.872C339.482 246.852 345.644 234.239 370.302 226.918C398.089 218.654 404.215 230.542 431.917 226.918C476.111 221.083 483.203 187.775 532.193 167.72C549.288 160.725 574.973 153.911 610.722 156.847" stroke="#B195FF" stroke-opacity="0.5" stroke-width="0.5" stroke-miterlimit="10"/>
<path d="M-89.3477 76.2031C-67.9877 80.7456 -50.3247 83.4518 -38.0862 84.9499C1.33546 89.9273 9.03132 86.6412 25.0513 95.1101C42.364 104.292 44.6715 113.957 63.1319 118.934C73.6037 121.701 84.5962 121.842 95.1356 119.345C115.142 114.621 115.916 99.2781 134.666 88.3809C157.826 74.8259 183.922 80.4678 186.942 80.9631C215.201 85.5419 230.786 113.389 238.457 128.249C240.028 131.281 241.164 133.891 242.082 135.775C265.037 184.861 243.362 220.21 267.646 238.042C282.144 248.662 302.9 245.992 313.121 244.844C322.487 243.816 331.566 240.985 339.857 236.508C348.314 232.267 356.227 227.483 369.239 224.306C373.226 223.339 376.778 222.808 379.967 222.349C399.297 219.558 406.752 226.432 430.045 222.288C439.056 220.706 447.733 217.606 455.705 213.119C477.343 201.038 490.874 179.292 524.376 163.417C526.341 162.483 528.395 161.573 530.538 160.687C547.79 153.51 573.862 146.37 610.154 149.113" stroke="#B195FF" stroke-opacity="0.5" stroke-width="0.5" stroke-miterlimit="10"/>
<path d="M-88.6953 77.7148C-67.7703 82.2574 -50.361 85.0723 -38.1104 86.7395C0.211841 91.9706 8.14933 88.9261 24.121 97.4192C41.1195 106.408 43.6325 115.988 61.5734 120.881C71.8301 123.64 82.5947 123.93 92.9851 121.726C112.69 117.776 113.741 102.928 132.189 92.3934C154.854 79.4545 180.261 83.6225 183.572 84.8186C209.716 94.1815 226.678 115.323 234.579 129.326C236.186 132.177 237.298 134.677 238.204 136.441C261.69 182.821 241.297 216.648 265.194 233.465C279.812 243.734 300.798 240.907 311.429 239.808C320.869 238.839 330.07 236.243 338.624 232.136C347.214 228.306 355.248 224.163 368.103 221.71C372.102 220.937 375.678 220.647 378.868 220.188C398.138 217.397 405.266 222.822 428.087 217.651C436.995 215.598 445.524 212.157 453.362 207.454C474.19 195.373 488.398 172.866 522.576 156.46C524.57 155.517 526.648 154.575 528.81 153.657C546.207 146.3 572.666 138.833 609.514 141.37" stroke="#B195FF" stroke-opacity="0.5" stroke-width="0.5" stroke-miterlimit="10"/>
<path d="M-88.043 79.2266C-67.5529 83.757 -50.4094 86.741 -38.1709 88.5895C-0.935964 94.0381 7.26731 91.2715 23.1665 99.7645C39.8388 108.608 42.5692 118.007 60.0752 122.876C70.1114 125.611 80.6389 126.024 90.8586 124.084C110.189 120.882 111.578 106.53 129.725 96.406C151.894 84.0349 176.492 87.2001 180.225 88.6499C200.985 96.9702 218.633 111.557 230.713 130.378C232.356 133.048 233.456 135.44 234.338 137.095C258.331 180.672 239.243 213.11 262.717 228.912C277.504 238.843 298.683 235.835 309.726 234.808C319.242 233.879 328.562 231.513 337.368 227.788C346.115 224.37 354.282 220.878 366.943 219.126C370.978 218.571 374.567 218.51 377.756 218.051C397.002 215.248 403.743 219.259 426.082 213.037C434.869 210.503 443.249 206.728 450.969 201.826C470.988 189.66 485.933 166.513 520.715 149.527C522.721 148.56 524.823 147.598 527.022 146.639C544.564 139.113 571.421 131.32 608.813 133.664" stroke="#B195FF" stroke-opacity="0.5" stroke-width="0.5" stroke-miterlimit="10"/>
<path d="M-87.3906 80.7227C-67.3355 85.2652 -50.4457 88.4063 -38.183 90.3876C-2.03542 96.0536 6.44572 93.5649 22.2241 102.07C38.5581 110.781 41.5543 119.974 58.5287 124.831C68.3545 127.58 78.661 128.157 88.7323 126.522C107.785 124.106 109.416 110.213 127.272 100.487C148.946 88.5875 172.444 93.3233 176.878 92.5139C202.43 97.6725 218.499 119.092 226.859 131.463C228.538 133.94 229.614 136.211 230.556 137.77C255.081 178.58 237.297 209.544 260.337 224.307C275.318 233.9 296.653 230.722 308.119 229.744C317.719 228.86 327.162 226.724 336.208 223.389C345.124 220.381 353.388 217.554 365.892 216.491C369.951 216.14 373.552 216.322 376.765 215.862C395.987 213.06 402.342 215.609 424.269 208.384C433.56 205.316 441.183 200.918 448.77 196.134C468.004 183.944 483.613 160.023 519.06 142.542C521.074 141.551 523.2 140.565 525.439 139.582C543.138 131.862 570.382 123.744 608.318 125.894" stroke="#B195FF" stroke-opacity="0.5" stroke-width="0.5" stroke-miterlimit="10"/>
<path d="M-86.75 82.2344C-67.166 86.7648 -50.4937 90.063 -38.1706 92.1168C-3.13452 97.9882 5.5641 95.8378 21.3424 104.295C37.3382 112.896 40.5156 121.873 57.0672 126.705C66.6642 129.453 76.7289 130.169 86.6183 128.807C105.308 127.019 107.265 113.742 124.82 104.427C145.986 93.2041 168.627 97.517 173.556 96.3452C198.347 101.033 214.403 120.967 223.017 132.516C224.733 134.812 225.796 136.974 226.763 138.424C251.808 176.443 235.365 205.945 257.945 219.706C273.119 228.96 294.624 225.601 306.488 224.695C318.569 223.777 327.087 221.276 335.036 219.005C344.122 216.408 352.579 212.638 364.817 213.859C368.435 214.248 372.087 214.188 375.69 213.677C394.9 210.874 400.844 212.022 422.349 203.722C431.349 200.255 438.84 195.483 446.512 190.433C464.96 178.255 481.234 153.598 517.333 135.549C519.371 134.534 521.521 133.519 523.784 132.504C541.629 124.615 569.259 116.17 607.75 118.115" stroke="#B195FF" stroke-opacity="0.5" stroke-width="0.5" stroke-miterlimit="10"/>
<path d="M-86.0977 83.7578C-66.9003 88.2882 -50.53 91.7435 -38.2552 93.9301C-4.27021 99.9707 4.70628 98.1344 20.4121 106.615C36.118 115.096 39.4887 123.843 55.5449 128.688C69.5352 132.904 81.1937 131.998 84.5403 131.213C102.385 126.984 105.139 117.38 122.403 108.476C143.063 97.8203 164.87 101.747 170.258 100.224C194.276 104.453 210.308 122.852 219.212 133.605C220.952 135.719 222.003 137.773 222.981 139.126C248.546 174.354 233.48 202.358 255.601 215.165C270.993 224.08 292.631 220.541 304.917 219.695C317.204 218.849 325.818 216.578 333.913 214.657C343.155 212.47 351.902 209.196 363.79 211.286C367.378 211.95 371.049 212.036 374.663 211.54C393.849 208.737 399.394 208.484 420.464 199.121C429.187 195.255 436.508 190.096 444.192 184.829C461.867 172.748 478.817 147.256 515.557 128.639C517.611 127.6 519.785 126.561 522.081 125.522C540.082 117.452 568.099 108.681 607.134 110.421" stroke="#B195FF" stroke-opacity="0.5" stroke-width="0.5" stroke-miterlimit="10"/>
<path d="M-85.4453 85.2266C-66.6829 89.7932 -50.5783 93.4176 -38.2915 95.6888C-5.39384 101.874 3.84844 100.388 19.4818 108.869C34.8252 117.205 38.4496 125.783 54.0346 130.615C67.6383 134.832 78.9707 134.312 82.3656 133.563C99.8595 129.673 102.904 120.975 119.89 112.482C140.042 102.382 160.967 105.946 166.863 104.025C190.12 107.782 206.091 124.563 215.297 134.626C216.656 136.264 217.931 137.969 219.115 139.737C245.175 172.175 231.523 198.669 253.112 210.532C268.734 219.098 290.504 215.365 303.202 214.604C315.416 213.855 324.393 211.789 332.644 210.23C342.056 208.454 351.093 205.76 362.618 208.623C366.186 209.568 369.905 209.806 373.564 209.324C392.737 206.509 397.872 204.878 418.519 194.428C426.976 190.163 434.104 184.642 441.848 179.109C458.762 167.028 476.377 140.812 513.757 121.627C515.827 120.564 518.025 119.501 520.353 118.438C538.475 110.186 566.903 101.089 606.494 102.635" stroke="#B195FF" stroke-opacity="0.5" stroke-width="0.5" stroke-miterlimit="10"/>
<path d="M-84.793 86.7148C-66.4655 91.2574 -50.6267 95.0025 -38.3158 97.4671C-6.51747 103.822 2.9906 102.674 18.6119 111.155C33.6291 119.358 37.471 127.718 52.5727 132.527C65.8623 136.743 76.8081 136.61 80.2996 135.897C97.4552 132.382 100.838 124.553 117.486 116.459C137.131 106.927 157.246 110.116 163.577 107.869C186.06 111.155 201.947 126.438 211.504 135.656C212.875 137.157 214.162 138.735 215.358 140.379C241.937 170.014 229.698 194.974 250.756 205.92C266.607 214.147 288.499 210.245 301.607 209.544C313.93 208.867 323.112 207.019 331.508 205.823C341.489 204.45 351.614 204.503 361.579 205.98C365.832 206.524 369.408 207.587 372.561 207.188C391.71 204.361 396.434 201.377 416.658 189.827C424.801 185.176 431.796 179.256 439.613 173.482C455.79 161.497 474.033 134.447 512.102 114.695C514.18 113.62 516.415 112.52 518.783 111.421C537.074 102.964 565.9 93.5649 605.998 94.9179" stroke="#B195FF" stroke-opacity="0.5" stroke-width="0.5" stroke-miterlimit="10"/>
<path d="M-84.0801 88.7927C-66.1875 93.3232 -50.6025 97.2495 -38.2915 99.8228C-7.62886 106.31 2.145 105.501 17.6213 114.018C32.3244 122.088 36.3717 130.243 51.0023 135.039C63.8569 139.256 74.5127 139.497 78.1009 138.833C94.9424 135.728 98.5789 128.721 114.973 121.037C134.098 112.073 153.38 114.888 160.17 112.291C181.917 115.105 197.622 128.793 207.577 137.323C208.961 138.687 210.264 140.131 211.48 141.648C238.482 168.48 227.778 191.893 248.28 201.933C264.384 209.822 286.372 205.75 299.904 205.11C312.311 204.518 321.711 202.887 330.252 202.054C339.99 201.099 349.063 201.909 360.456 203.974C364.769 204.76 368.333 206.028 371.474 205.569C390.599 202.742 394.924 198.405 414.725 185.732C422.578 180.694 429.404 174.4 437.281 168.359C452.734 156.496 471.605 128.612 510.265 108.28C512.367 107.168 514.615 106.057 517.019 104.921C535.455 96.3193 564.632 86.5698 605.322 87.7175" stroke="#B195FF" stroke-opacity="0.5" stroke-width="0.5" stroke-miterlimit="10"/>
<path d="M-83.4883 94.0257C-66.0306 98.5562 -50.7114 102.603 -38.3883 105.346C-8.75263 111.954 1.28704 111.543 16.6908 120C31.0677 127.938 35.3325 135.899 49.4919 140.671C61.9599 144.887 72.2774 145.504 75.9743 144.887C92.5017 142.217 96.404 136.008 112.509 128.735C131.114 120.278 149.562 122.791 156.823 119.819C177.772 122.235 192.161 136.201 203.723 142.085C205.258 143.728 206.587 145.057 207.65 145.999C235.111 170.016 225.941 191.907 245.863 201.041C262.234 208.567 284.318 204.327 298.26 203.759C310.753 203.251 320.369 201.838 329.056 201.343C338.963 200.799 348.205 202.406 359.32 205.027C363.693 206.054 367.245 207.528 370.374 207.057C389.487 204.23 393.402 198.6 412.768 184.755C420.343 179.355 427 172.674 434.937 166.356C449.677 154.625 469.164 125.884 508.465 104.983C510.583 103.864 512.859 102.72 515.291 101.552C533.884 92.8297 563.484 82.754 604.681 83.7568" stroke="#B195FF" stroke-opacity="0.5" stroke-width="0.5" stroke-miterlimit="10"/>
<path d="M-82.8721 98.7367C-65.8131 103.267 -50.7597 107.447 -38.4245 110.335C-9.86406 117.052 0.489713 117.052 15.7606 125.557C29.8113 133.349 34.2935 141.117 47.9697 145.877C60.0511 150.082 70.0304 151.024 73.8481 150.504C90.0734 148.294 94.2294 142.869 110.092 136.007C128.214 128.154 145.793 130.244 153.525 126.922C173.701 128.807 187.945 141.504 199.906 146.397C201.159 147.647 202.486 148.821 203.88 149.912C231.764 171.139 224.165 191.387 243.495 199.711C260.144 206.875 282.301 202.465 296.654 201.982C309.242 201.547 319.077 200.351 327.896 200.243C337.972 200.11 347.396 202.538 358.269 205.691C362.691 206.972 366.243 208.639 369.372 208.107C388.448 205.268 391.976 198.297 410.908 183.329C418.156 177.566 424.692 170.511 432.654 163.914C446.681 152.341 466.772 122.718 506.713 101.237C508.84 100.029 511.147 98.9179 513.612 97.7339C532.35 88.7576 562.3 78.4041 604.089 79.1169" stroke="#B195FF" stroke-opacity="0.5" stroke-width="0.5" stroke-miterlimit="10"/>
<path d="M-82.1953 103.45C-65.5834 107.98 -50.7836 112.293 -38.4606 115.35C-10.9754 122.139 -0.428277 122.538 14.8306 131.055C28.555 138.715 33.2547 146.29 46.4597 151.025C58.1787 155.23 67.7955 155.58 71.7219 156.075C87.609 158.105 92.055 149.672 107.58 143.233C125.158 135.984 141.927 137.664 150.13 133.979C169.545 135.392 183.62 146.773 196.04 150.675C197.305 151.803 198.645 152.844 200.051 153.792C228.345 172.216 222.341 190.833 241.128 198.335C258.042 205.125 280.283 200.57 295.059 200.147C307.745 199.797 317.784 198.83 326.749 199.072C336.994 199.35 346.574 202.624 357.218 206.321C361.7 207.855 365.228 209.703 368.357 209.244C387.421 206.393 390.563 198.118 409.035 181.989C416.054 175.864 422.385 168.422 430.431 161.548C443.721 150.143 464.453 119.626 505.034 97.5179C507.185 96.3581 509.508 95.15 512.005 93.8935C530.888 84.736 561.237 74.008 603.57 74.5637" stroke="#B195FF" stroke-opacity="0.5" stroke-width="0.5" stroke-miterlimit="10"/>
<path d="M-81.543 108.174C-65.366 112.752 -50.8441 117.138 -38.4969 120.351C-12.0869 127.214 -1.28612 128.035 13.9002 136.564C27.2985 144.079 32.2157 151.412 44.9374 156.245C56.2818 160.449 65.5724 161.077 69.5835 161.717C85.0719 164.134 89.8682 156.547 105.115 150.518C122.174 143.765 138.121 145.142 146.784 141.095C165.425 142.049 179.404 152.089 192.137 155.012C193.415 156.02 194.768 156.929 196.185 157.73C224.866 173.363 220.529 190.35 238.615 197.03C255.855 203.421 278.133 198.722 293.307 198.384C306.089 198.106 316.346 197.369 325.456 197.973C335.87 198.661 345.608 202.805 356.022 206.949C360.552 208.761 364.08 210.791 367.197 210.32C386.237 207.469 389.016 197.9 407.066 180.6C413.807 174.113 419.969 166.296 428.063 159.132C440.725 147.909 461.988 116.485 503.21 93.8937C505.376 92.6936 507.724 91.4855 510.253 90.2693C529.293 80.9427 560.017 69.8884 602.906 70.2509" stroke="#B195FF" stroke-opacity="0.5" stroke-width="0.5" stroke-miterlimit="10"/>
<path d="M-80.8906 112.885C-65.1848 117.404 -50.8925 121.97 -38.5332 125.353C-13.1622 132.263 -2.14396 133.544 12.9699 142.061C26.0541 149.443 31.1766 156.643 43.4271 161.391C54.385 165.595 63.3494 166.501 67.4571 167.287C82.5347 170.15 87.6934 163.336 102.65 157.73C119.19 151.533 134.304 152.548 143.437 148.138C161.318 148.621 175.09 157.344 188.283 159.277C189.577 160.16 190.943 160.932 192.367 161.584C221.362 174.475 218.753 189.697 236.198 195.641C253.644 201.585 276.067 196.849 291.664 196.547C304.531 196.342 315.005 195.822 324.284 196.789C334.855 197.888 344.75 202.829 354.946 207.541C359.525 209.631 363.053 211.818 366.158 211.359C385.174 208.496 387.602 197.659 405.133 179.162C411.62 172.325 417.613 164.134 425.756 156.667C437.74 145.661 459.584 113.308 501.434 90.0881C503.608 88.88 505.988 87.6719 508.55 86.3551C527.711 76.7989 558.832 65.4184 602.265 65.6359" stroke="#B195FF" stroke-opacity="0.5" stroke-width="0.5" stroke-miterlimit="10"/>
<path d="M-80.2383 117.582C-64.9311 122.101 -50.9288 126.788 -38.5574 130.328C-14.2979 137.287 -3.00179 139.014 12.0396 147.544C24.7976 154.792 30.1617 161.787 41.9048 166.475C52.5002 170.679 61.1385 171.863 65.3307 172.793C80.0096 176.043 85.5067 170.075 100.198 164.88C116.206 159.226 130.486 159.903 140.066 155.131C157.174 155.131 170.789 162.536 184.393 163.479C185.712 164.238 187.094 164.88 188.525 165.4C217.955 175.572 216.989 189.006 233.782 194.225C251.65 199.77 274.001 194.853 290.021 194.684C302.972 194.539 313.664 194.249 323.064 195.578C333.804 197.088 343.832 202.96 353.823 208.094C358.45 210.511 361.966 212.818 365.071 212.347C384.075 209.496 386.153 197.378 403.2 177.686C409.422 170.498 415.281 161.981 423.424 154.164C434.756 143.376 457.155 110.092 499.646 86.2922C501.844 85.0599 504.241 83.7874 506.834 82.4746C526.164 72.8097 557.673 61.0909 601.661 61.0547" stroke="#B195FF" stroke-opacity="0.5" stroke-width="0.5" stroke-miterlimit="10"/>
<path d="M-79.5859 122.317C-64.7137 126.836 -50.9771 131.632 -38.5937 135.353C-15.3974 142.336 -3.84754 144.535 11.1093 153.088C23.541 160.18 29.0985 166.993 40.3946 171.657C47.7895 174.557 55.4212 176.812 63.2043 178.398C77.4846 182.022 83.3199 176.9 97.733 172.128C113.209 167.018 126.728 167.296 136.744 162.209C153.078 161.762 166.549 167.827 180.563 167.791C181.903 168.422 183.298 168.927 184.731 169.301C214.427 176.743 215.249 188.353 231.366 192.859C249.572 197.945 271.947 193.246 288.366 192.859C301.414 192.557 312.311 192.738 321.867 194.418C332.741 196.339 342.937 203.104 352.723 208.698C357.387 211.355 360.915 213.868 364.007 213.397C382.987 210.534 384.739 197.16 401.291 176.26C407.247 168.733 412.925 159.817 421.128 151.711C431.796 141.152 454.751 106.926 497.882 82.5462C500.093 81.3381 502.509 79.9971 505.13 78.6561C524.618 68.7858 556.513 56.753 601.045 56.5234" stroke="#B195FF" stroke-opacity="0.5" stroke-width="0.5" stroke-miterlimit="10"/>
<path d="M-78.9336 127.043C-64.4359 131.561 -51.0134 136.454 -38.63 140.332C-16.4968 147.315 -4.70537 149.997 10.191 158.562C22.2724 165.509 28.0594 172.142 38.8723 176.781C46.079 179.758 53.5024 182.182 61.0779 184.03C74.9837 188.004 81.1331 183.74 95.2684 179.415C110.213 174.824 122.862 174.812 133.397 169.327C148.97 168.397 162.284 173.144 176.697 172.118C178.062 172.616 179.469 172.988 180.901 173.229C210.936 178.001 213.521 187.726 228.949 191.544C247.506 196.135 269.881 191.375 286.723 191.085C299.867 190.867 310.97 191.266 320.671 193.308C331.738 195.64 342.019 203.299 351.636 209.352C356.312 212.299 359.863 214.969 362.944 214.498C381.912 211.623 383.338 196.993 399.37 174.884C405.084 167.007 410.605 157.741 418.821 149.32C428.873 139.003 452.359 103.823 496.142 78.851C498.365 77.5825 500.817 76.2536 503.475 74.8763C523.12 64.8369 555.425 52.4779 600.477 52.043" stroke="#B195FF" stroke-opacity="0.5" stroke-width="0.5" stroke-miterlimit="10"/>
<path d="M-78.293 131.77C-64.2785 136.276 -51.0494 141.277 -38.6659 145.373C-17.6322 152.368 -5.55076 155.533 9.26106 164.111C21.0404 170.925 27.0207 177.4 37.3624 181.979C44.3806 184.979 51.5886 187.513 58.9398 189.566C72.4831 193.879 78.9467 190.496 92.7678 186.594C107.193 182.547 119.009 182.196 130.015 176.337C144.815 174.948 157.971 178.367 172.807 176.337C174.195 176.707 175.615 176.945 177.048 177.05C207.42 179.176 211.734 186.932 226.497 190.109C245.404 194.193 267.779 189.385 285.044 189.215C298.273 189.07 309.593 189.687 319.439 192.091C330.675 194.833 341.065 203.387 350.501 209.898C355.2 213.148 358.764 215.939 361.845 215.492C380.789 212.617 381.924 196.718 397.425 173.401C402.886 165.186 408.298 155.582 416.477 146.823C425.949 136.759 449.919 100.673 494.354 75.0607C496.589 73.768 499.066 72.4149 501.76 71.0135C521.549 60.8049 554.218 48.1076 599.849 47.5156" stroke="#B195FF" stroke-opacity="0.5" stroke-width="0.5" stroke-miterlimit="10"/>
<path d="M-77.6406 136.489C-64.0611 141.007 -51.0615 146.081 -38.7022 150.394C-18.6712 157.365 -6.4086 161.05 8.33073 169.628C19.796 176.296 25.9817 182.566 35.8401 187.145C42.6726 190.213 49.6752 192.888 56.8135 195.155C69.9943 199.806 76.7478 197.293 90.3394 193.826C104.233 190.298 115.227 189.622 126.704 183.412C140.743 181.552 153.743 183.642 168.989 180.646C170.407 180.835 171.836 180.936 173.266 180.948C203.953 182.313 210.042 186.203 224.117 188.764C243.375 192.268 265.762 187.242 283.425 187.411C296.714 187.544 308.288 188.184 318.28 190.951C329.684 194.104 340.159 203.564 349.437 210.522C354.161 214.074 357.749 217.022 360.818 216.563C379.75 213.688 380.595 196.544 395.54 172.02C400.759 163.454 406.015 153.511 414.218 144.39C423.037 134.58 447.575 97.4789 492.59 71.3353C494.853 70.0144 497.346 68.6412 500.069 67.2156C520.003 56.8017 553.07 43.7903 599.245 42.9688" stroke="#B195FF" stroke-opacity="0.5" stroke-width="0.5" stroke-miterlimit="10"/>
<path d="M-76.9881 141.204C-63.8435 145.71 -51.0976 150.869 -38.7383 155.387C-19.7463 162.322 -7.26624 166.526 7.4006 175.128C18.5397 181.651 24.9307 187.74 34.3301 192.295C43.0287 196.523 50.0359 198.94 54.6873 200.752C67.5177 205.717 74.5612 204.086 87.8749 201.078C99.9181 198.313 111.77 194.774 123.358 190.483C136.068 186.013 149.333 181.567 165.124 184.937C166.557 185.137 168.013 185.104 169.437 184.841C200.534 181.772 208.302 185.445 221.701 187.414C241.321 190.289 263.696 185.336 281.782 185.602C295.204 185.795 306.947 186.677 317.084 189.794C328.645 193.418 339.217 203.736 348.338 211.141C353.074 214.995 356.699 218.088 359.767 217.617C378.663 214.73 379.242 196.33 393.595 170.597C398.573 161.681 403.707 151.424 411.874 141.953C420.041 132.481 445.183 94.4013 490.79 67.5811C493.061 66.2643 495.623 64.8508 498.341 63.389C518.432 52.8059 551.874 39.4683 598.617 38.4414" stroke="#B195FF" stroke-opacity="0.5" stroke-width="0.5" stroke-miterlimit="10"/>
<path d="M-76.3359 145.924C-63.6263 150.43 -51.122 155.589 -38.7627 160.422C-20.8218 167.32 -8.11218 172.056 6.47009 180.67C17.3434 187.048 23.8915 192.956 32.8076 197.487C41.1317 201.727 47.8973 204.373 52.5607 206.342C65.0529 211.621 72.3621 210.86 85.4101 208.311C98.2284 205.81 106.734 202.621 120.011 197.559C131.972 192.992 144.706 192.11 161.269 189.223C162.792 188.957 164.253 188.981 165.619 188.74C197.103 183.086 206.563 184.656 219.284 186.058C239.255 188.244 261.642 183.436 280.126 183.786C293.645 184.052 305.606 185.164 315.887 188.619C327.618 192.606 338.262 203.865 347.239 211.73C351.987 215.886 355.696 219.124 358.704 218.653C377.575 215.765 377.901 196.097 391.71 169.12C396.458 159.854 401.484 149.307 409.603 139.449C417.25 130.17 442.827 91.1844 489.062 63.7844C491.358 62.4434 493.895 61.0057 496.686 59.5077C516.922 48.7554 550.762 35.0917 598.037 33.8594" stroke="#B195FF" stroke-opacity="0.5" stroke-width="0.5" stroke-miterlimit="10"/>
<path d="M-75.623 150.635C-63.3483 155.142 -51.0736 160.397 -38.7385 165.386C-21.8245 172.236 -8.90947 177.468 5.60031 186.142C16.0991 192.376 22.913 198.102 31.3579 202.62C39.2954 206.849 45.771 209.712 50.4949 211.887C62.6608 217.48 70.2359 217.589 83.018 215.511C95.2927 213.506 103.061 210.256 116.725 204.638C127.973 199.975 140.477 197.788 157.464 193.523C158.974 193.149 160.472 192.992 161.861 192.641C193.756 184.414 204.919 186.081 216.928 184.704C237.386 182.457 257.968 181.553 278.544 181.998C292.159 182.324 304.325 183.665 314.788 187.507C326.688 191.904 337.392 204.07 346.2 212.382C350.948 216.84 354.657 220.211 357.701 219.752C376.56 216.852 376.621 195.928 389.862 167.803C394.38 158.198 399.322 147.361 407.368 137.104C414.435 128.104 440.483 88.1153 487.359 60.1474C489.666 58.7823 492.191 57.3204 495.055 55.7982C515.448 44.8527 549.663 30.8627 597.493 29.4492" stroke="#B195FF" stroke-opacity="0.5" stroke-width="0.5" stroke-miterlimit="10"/>
<path d="M-75.0312 154.031C-63.1915 158.537 -51.1463 163.829 -38.787 169.072C-22.8879 175.85 -9.79161 181.685 4.70609 190.323C14.8907 196.364 21.91 201.969 29.8838 206.451C37.4347 210.692 43.6324 213.773 48.3925 216.116C60.2685 222.012 68.0731 222.99 80.5895 221.384C92.3326 219.874 99.4002 216.624 113.415 210.293C123.974 205.521 136.297 202.078 153.646 196.4C155.156 195.905 156.654 195.578 158.08 195.107C190.41 184.331 203.228 183.316 214.548 181.939C235.242 179.392 256.091 178.33 276.937 178.761C290.637 179.16 303.02 180.731 313.58 184.935C325.661 189.767 336.413 202.803 345.136 211.513C349.872 216.273 353.593 219.801 356.674 219.33C375.509 216.418 375.34 194.237 387.977 164.892C392.266 154.925 397.159 143.823 405.096 133.167C411.608 124.432 438.115 83.4531 485.631 54.9054C487.951 53.516 490.548 52.03 493.399 50.4837C513.938 39.3569 548.551 25.0407 596.925 23.4219" stroke="#B195FF" stroke-opacity="0.5" stroke-width="0.5" stroke-miterlimit="10"/>
<path d="M-74.415 155.858C-63.0102 160.365 -51.1704 165.656 -38.9078 171.177C-24.0235 177.882 -10.6856 184.249 3.643 192.923C13.5135 198.855 20.7261 204.256 28.2287 208.701C35.405 212.954 41.3249 216.228 46.1333 218.813C57.7194 225.011 65.7536 226.847 77.992 225.724C89.2036 224.697 95.6188 221.532 109.935 214.464C119.818 209.632 131.996 204.896 149.647 197.792C151.169 197.188 152.679 196.693 154.117 196.101C186.93 182.751 201.307 179.018 211.999 177.677C232.815 175.08 255.42 173.412 275.149 174.053C288.946 174.5 301.534 176.312 312.251 180.879C324.489 186.098 335.29 200.051 343.904 209.281C348.64 214.355 352.446 218.004 355.478 217.533C374.301 214.633 373.89 191.172 385.935 160.631C389.995 150.313 394.863 138.957 402.656 127.879C408.624 119.422 435.578 77.4518 483.734 48.3242C486.078 46.9228 488.688 45.4005 491.575 43.8179C512.271 32.522 547.258 17.8797 596.188 16.0312" stroke="#B195FF" stroke-opacity="0.5" stroke-width="0.5" stroke-miterlimit="10"/>
<path d="M-73.7383 157.595C-62.7563 162.089 -51.1098 167.381 -38.9076 173.204C-24.6423 179.888 -10.7376 187.316 2.74917 195.458C12.3056 201.257 19.6632 206.488 26.7549 210.885C33.5326 215.174 39.1867 218.629 44.0435 221.42C55.3517 227.932 63.6033 230.614 75.5639 229.985C86.2559 229.43 92.055 226.422 106.625 218.557C115.88 213.567 127.925 207.623 145.829 199.106C147.352 198.381 148.874 197.717 150.336 197.016C183.62 181.093 199.447 174.001 209.619 173.337C230.87 171.984 253.39 168.505 273.542 169.266C287.436 169.761 300.23 171.839 311.091 176.756C323.499 182.386 334.336 197.294 342.841 206.959C347.553 212.335 351.419 216.128 354.451 215.669C373.25 212.746 372.573 188.016 384.051 156.278C388.104 144.39 393.589 133.039 400.385 122.475C405.821 114.272 433.21 71.3237 481.995 41.6162C484.351 40.1906 486.984 38.6442 489.908 37.0374C510.749 25.5603 546.135 10.5918 595.608 8.57422" stroke="#B195FF" stroke-opacity="0.5" stroke-width="0.5" stroke-miterlimit="10"/>
<path d="M-73.0859 159.263C-47.2046 170.298 -22.1689 183.219 1.81885 197.923C40.4069 221.59 50.954 234.372 73.0992 234.166C89.2279 234.009 93.0336 227.147 141.963 200.339C178.763 180.176 197.163 170.136 207.203 168.928C243.278 164.712 282.712 159.493 309.895 172.552C329.491 181.964 344.931 214.933 353.388 213.628C378.457 209.738 368.562 164.7 398.089 116.979C403.007 109.03 430.818 65.1147 480.243 34.8272C499.428 23.0723 537.944 3.52496 595.016 1" stroke="#B195FF" stroke-opacity="0.5" stroke-width="0.5" stroke-miterlimit="10"/>
</svg>
